<svg width="252" height="1141" viewBox="0 0 252 1141" fill="none" xmlns="http://www.w3.org/2000/svg">
<path fill-rule="evenodd" clip-rule="evenodd" d="M251 0L251 205L157 299V532.5C140.708 532.5 127.5 545.708 127.5 562C127.5 578.292 140.708 591.5 157 591.5C173.292 591.5 186.5 578.292 186.5 562C186.5 546.042 173.829 533.044 158 532.517L158 299.414L251 206.414L251 624L113 761L113.705 761.71L251.705 624.71L251 624H252L252 205L252 0H251ZM111 761L111 1141H112L112 761H111.221L111.928 760.293L33 681.365L33 321.484C49.9559 320.948 63.5 306.811 63.5 289.5C63.5 271.85 49.4202 257.5 32 257.5C14.5798 257.5 0.5 271.85 0.5 289.5C0.5 307.15 14.5798 321.5 32 321.5V682H32.2207L111.221 761H111ZM157 535.5C142.364 535.5 130.5 547.364 130.5 562C130.5 576.636 142.364 588.5 157 588.5C171.636 588.5 183.5 576.636 183.5 562C183.5 547.364 171.636 535.5 157 535.5ZM32 260.5C16.2832 260.5 3.5 273.46 3.5 289.5C3.5 305.54 16.2832 318.5 32 318.5C47.7168 318.5 60.5 305.54 60.5 289.5C60.5 273.46 47.7168 260.5 32 260.5Z" fill="#B4B4B4"/>
</svg>
