<svg width="53" height="43" viewBox="0 0 53 43" fill="none" xmlns="http://www.w3.org/2000/svg">
<path d="M53 5.08538C51.0543 5.95362 48.9529 6.53244 46.7588 6.79043C49.0042 5.44591 50.7231 3.31749 51.5395 0.785547C49.4381 2.02588 47.1098 2.93546 44.6358 3.42168C42.6487 1.3131 39.8237 0 36.6973 0C30.6945 0 25.8293 4.85881 25.8293 10.8538C25.8293 11.7005 25.9221 12.5274 26.1092 13.3245C17.0744 12.8697 9.06296 8.5484 3.70268 1.97627C2.77039 3.57879 2.23386 5.44921 2.23386 7.43375C2.23386 11.1961 4.14813 14.5235 7.06755 16.4684C5.28742 16.4171 3.6116 15.921 2.14113 15.1139C2.14113 15.1553 2.14113 15.2065 2.14113 15.2479C2.14113 20.5086 5.88852 24.9027 10.8663 25.8933C9.95551 26.1413 8.99341 26.2753 7.99984 26.2753C7.29607 26.2753 6.62376 26.2025 5.95145 26.0785C7.33912 30.3883 11.3548 33.5304 16.104 33.6247C12.3781 36.5387 7.70012 38.2768 2.59817 38.2768C1.71887 38.2768 0.859433 38.2255 0 38.1213C4.82375 41.2123 10.5351 43 16.6737 43C36.6691 43 47.6083 26.4523 47.6083 12.1057C47.6083 11.6311 47.5983 11.1647 47.5768 10.7C49.6981 9.18015 51.5411 7.26837 53 5.08704V5.08538Z" fill="white"/>
</svg>
