<svg width="120" height="48" viewBox="0 0 120 48" fill="none" xmlns="http://www.w3.org/2000/svg">
<g clip-path="url(#clip0)">
<path d="M16.1232 7.94111C16.1337 7.90061 16.1397 7.87211 16.1412 7.85711L16.1907 7.50311L13.9707 7.49111C11.9652 7.47911 11.3517 7.49111 11.2962 7.54211C11.2692 7.56611 10.5777 10.1971 9.34318 14.9611C8.75518 17.2336 8.25868 19.0486 8.24218 18.9946C8.22568 18.9406 7.52068 16.3456 6.67618 13.2301C5.83168 10.1131 5.12518 7.54661 5.10418 7.52561C5.07568 7.49711 2.38618 7.48361 0.209682 7.50161C-0.105318 7.50461 -0.280818 6.88661 3.02368 17.3986C3.48118 18.8536 4.16668 20.9146 4.54618 21.9766C4.98418 23.2021 5.29618 24.1486 5.50918 24.9376C5.88568 26.4406 5.89918 27.3826 5.81668 28.4821C5.72218 29.7526 5.70718 38.7211 5.80018 38.8711C5.87068 38.9866 10.0767 39.0391 10.4742 38.9311C10.5372 38.9131 10.5807 38.8516 10.6092 38.5126C10.7082 38.2216 10.7157 37.0606 10.7157 32.2426V26.0881L10.9842 25.2391C11.1597 24.6841 11.6037 23.2231 11.9682 21.9946C12.3327 20.7661 12.7752 19.2931 12.9492 18.7246C14.5347 13.5541 16.0497 8.46761 16.0902 8.17661L16.1232 7.93961V7.94111Z" fill="#FDFDFD"/>
<path d="M39.6622 15.405L39.6607 15.726H39.6112L39.5827 24.585L39.5557 33.174L38.8687 33.8745C38.0992 34.6575 37.4812 34.9575 36.9232 34.818C36.3157 34.665 36.3307 34.902 36.2797 24.75L36.2332 15.405H31.8127V15.726H31.7617V25.8645C31.7617 36.7275 31.7617 36.72 32.3122 37.812C32.7517 38.6805 33.3907 39.1035 34.4872 39.249C35.9302 39.441 37.4872 38.787 38.9302 37.383L39.5572 36.7725V37.824C39.5572 38.733 39.5827 38.883 39.7477 38.9295C40.0177 39.0045 43.3657 39.009 43.7272 38.9355L44.0272 38.874V38.5635L44.0782 38.553V15.345L39.6622 15.4035V15.405Z" fill="#FDFDFD"/>
<path d="M28.4474 19.9845C28.0289 18.1875 27.2444 16.9785 25.9514 16.143C23.9219 14.8305 21.6059 14.6925 19.4549 15.7545C17.8874 16.5285 16.8794 17.8125 16.3574 19.6965C16.2959 19.9215 16.2494 20.109 16.2149 20.391C16.0829 21.0555 16.0664 22.0485 16.0319 26.67C15.9794 33.792 16.0604 34.6395 16.9529 36.2565C17.8274 37.8435 19.6439 39.006 21.6209 39.246C22.2164 39.318 23.4224 39.2055 24.1154 39.0135C25.6919 38.577 27.2024 37.3305 27.8714 35.916C28.1594 35.3055 28.3349 34.8795 28.4399 34.104C28.6349 33.0435 28.6499 31.3305 28.6499 26.961C28.6499 21.3885 28.6319 20.7795 28.4459 19.9845H28.4474ZM23.4059 34.5C23.0354 34.782 22.3874 34.905 21.8594 34.7925C21.4529 34.7055 20.9054 34.0695 20.7374 33.489C20.5274 32.766 20.5109 22.7085 20.6924 20.736C20.9909 19.749 21.8264 19.233 22.7384 19.479C23.4494 19.671 23.8124 20.115 24.0194 21.048C24.1739 21.7395 24.1919 22.6005 24.1589 27.669C24.1379 31.0305 24.1259 32.673 24.0149 33.555C23.9039 34.1115 23.7194 34.26 23.4044 34.5H23.4059Z" fill="#FDFDFD"/>
<path d="M107.829 25.0379H109.965L109.93 23.1029C109.897 21.3284 109.872 21.1244 109.633 20.6429C109.26 19.8824 108.708 19.5464 107.832 19.5464C106.78 19.5464 106.113 20.0549 105.798 21.1004C105.664 21.5444 105.523 24.6014 105.624 24.8654C105.681 25.0124 105.985 25.0394 107.827 25.0394L107.829 25.0379Z" fill="#FDFDFD"/>
<path d="M93.5533 20.6355C93.2683 20.061 92.7388 19.779 92.1223 19.8015C91.6438 19.818 91.1113 20.0205 90.5998 20.412L90.2188 20.7015V34.605L90.5998 34.8945C91.4638 35.553 92.4133 35.6925 93.0658 35.256C93.3238 35.0835 93.4933 34.845 93.6238 34.4655C93.7948 33.972 93.8098 33.3405 93.7873 27.492C93.7648 21.396 93.7513 21.0375 93.5518 20.637L93.5533 20.6355Z" fill="#FDFDFD"/>
<path d="M120.04 14.373C119.614 9.2715 119.276 7.6155 118.223 5.4885C116.83 2.6715 114.815 1.1865 111.947 0.859498C109.73 0.607498 101.386 0.251998 93.6639 0.0794977C80.2959 -0.217502 58.3179 0.353998 55.5099 1.0725C54.2124 1.404 53.2404 1.968 52.2279 2.976C50.4534 4.7415 49.3974 7.2735 48.9729 10.776C48.0024 18.7725 47.9829 28.4355 48.9174 36.7215C49.3194 40.2855 50.1474 42.6015 51.7029 44.5095C52.6734 45.7005 54.3444 46.713 55.8399 47.0145C56.8899 47.226 62.1414 47.52 69.7899 47.796C70.9299 47.8365 73.9464 47.907 76.4949 47.9535C81.8064 48.048 91.5714 47.9925 97.1529 47.835C100.909 47.73 107.756 47.4525 109.036 47.3535C109.396 47.325 110.23 47.2725 110.89 47.235C113.105 47.1105 114.515 46.6455 115.84 45.606C117.553 44.2605 118.88 41.772 119.44 38.8545C119.971 36.0945 120.325 31.1775 120.397 25.596C120.457 20.9325 120.377 18.4155 120.04 14.373ZM66.8094 12.525L64.3254 12.555L64.2159 39.0465L62.0634 39.0735C60.3984 39.096 59.8929 39.072 59.8524 38.964C59.8239 38.8875 59.7894 32.916 59.7744 25.6905L59.7474 12.5535L54.8964 12.492V8.352L69.2319 8.4105L69.2934 12.492L66.8094 12.522V12.525ZM82.0404 27.708V39.1005H78.1164V37.902C78.1164 37.0005 78.0819 36.7035 77.9769 36.7035C77.9004 36.7035 77.5449 37.0005 77.1864 37.365C76.4109 38.154 75.4914 38.7885 74.7069 39.0825C73.0824 39.69 71.5389 39.336 70.8804 38.2035C70.2789 37.167 70.2669 36.936 70.2669 26.1885V16.3185H74.1879L74.2179 25.6125C74.2464 34.7445 74.2509 34.9125 74.4699 35.2845C74.7594 35.778 75.2019 35.91 75.9039 35.7165C76.3179 35.6025 76.5999 35.4015 77.2704 34.7355L78.1149 33.894V16.3185H82.0389V27.711L82.0404 27.708ZM97.3479 37.473C97.0029 38.2425 96.2319 38.997 95.6004 39.183C93.9519 39.669 92.6304 39.273 91.1034 37.8375C90.6294 37.392 90.1884 37.0305 90.1224 37.0305C90.0429 37.0305 89.9994 37.38 89.9994 38.0655V39.1005H86.0754V8.358H89.9994V13.3725C89.9994 16.131 90.0369 18.387 90.0804 18.387C90.1239 18.387 90.5394 18.021 90.9999 17.5755C92.0604 16.551 92.9469 16.104 94.0734 16.0185C96.0804 15.867 97.2759 16.899 97.8249 19.2585C97.9959 19.995 98.0124 20.835 98.0124 27.6525C98.0124 35.958 98.0109 35.9925 97.3479 37.4715V37.473ZM113.951 32.9145C113.917 33.7695 113.813 34.749 113.72 35.0955C113.174 37.119 111.722 38.5515 109.622 39.1395C106.795 39.93 103.682 38.634 102.44 36.1485C101.743 34.7535 101.719 34.4745 101.719 27.6555C101.719 22.095 101.738 21.4125 101.917 20.655C102.421 18.5085 103.669 17.1195 105.784 16.3485C106.396 16.125 107.036 16.011 107.675 15.9975C109.957 15.951 112.222 17.178 113.17 19.176C113.81 20.5245 113.89 21.1005 113.953 24.9L114.011 28.3065L105.644 28.365L105.614 30.654C105.571 33.8835 105.788 34.8765 106.66 35.4645C107.393 35.958 108.52 35.922 109.133 35.382C109.708 34.8765 109.87 34.335 109.927 32.7525L109.978 31.362H114.019L113.954 32.916L113.951 32.9145Z" fill="#FDFDFD"/>
</g>
<defs>
<clipPath id="clip0">
<rect width="120" height="48" fill="white"/>
</clipPath>
</defs>
</svg>
